<svg xmlns="http://www.w3.org/2000/svg" viewBox="0 0 719.66 167.5"><defs><style>.cls-1{fill:#030204;}.cls-2{fill:#4c9b9a;}</style></defs><title>Element 1</title><g id="Ebene_2" data-name="Ebene 2"><g id="Ebene_1-2" data-name="Ebene 1"><path class="cls-1" d="M92.31,94.7c0,49.74-40.9,72.46-92.31,72.46V143c38,0,68.15-15.06,68.15-48.3V23.91H23V0H92.31Z"/><path class="cls-1" d="M537.28.33C592,.33,619.54,42.18,619.54,84s-27.5,83.46-82.26,83.46h-60V.33Zm0,143c38.74,0,58.35-29.65,58.35-59.31S576,24.49,537.28,24.49H501.41V143.34Z"/><path class="cls-1" d="M637.4.28H577.57a78.6,78.6,0,0,1,35.37,24.16H637.4c38.74,0,58.35,29.89,58.35,59.54s-19.61,59.31-58.35,59.31H613.05a78.6,78.6,0,0,1-35.41,24.15H637.4c54.76,0,82.26-41.61,82.26-83.46S692.16.28,637.4.28"/><polygon class="cls-1" points="466.87 42.26 466.87 0.32 411.87 81.28 356.71 0.09 337.13 0.09 337.13 167.24 361.25 167.24 361.25 49.52 404.94 114.47 418.56 114.47 445.67 74.17 466.87 42.26"/><path class="cls-2" d="M221.28,24.71a82.33,82.33,0,0,0-117.38-.18V75.28a59.51,59.51,0,0,1,16.81-33.81,58.45,58.45,0,0,1,41.67-17.69,59.83,59.83,0,0,1,0,119.66,58.45,58.45,0,0,1-41.67-17.69A59.51,59.51,0,0,1,103.9,91.94v4.32c0,13.94-3.24,25.74-9,35.51a87.93,87.93,0,0,0,8.84,10.74,82.35,82.35,0,0,0,117.57,0,83.75,83.75,0,0,0,0-117.8"/><path class="cls-2" d="M242.47,29.8a55.41,55.41,0,0,1,25.1-5.7,59.49,59.49,0,0,1,58.9,52.61V25A83.06,83.06,0,0,0,267.57.35a82,82,0,0,0-41.81,11.53c1.91,1.62,3.76,3.31,5.53,5.08,3.93,4.05,8,8.11,11.18,12.84"/><path class="cls-2" d="M326.47,91.15a59.49,59.49,0,0,1-58.9,52.61A57.6,57.6,0,0,1,240,136.69,96.13,96.13,0,0,1,231.29,147a94.11,94.11,0,0,1-8.22,7.38,82.48,82.48,0,0,0,103.4-11.59Z"/></g></g></svg>